<svg xmlns="http://www.w3.org/2000/svg" version="1.1" xmlns:xlink="http://www.w3.org/1999/xlink" xmlns:svgjs="http://svgjs.com/svgjs" width="1440" height="560" preserveAspectRatio="none" viewBox="0 0 1440 560"><g mask="url(&quot;#SvgjsMask1002&quot;)" fill="none"><rect width="1440" height="560" x="0" y="0" fill="url(#SvgjsLinearGradient1003)"></rect><path d="M1440 0L769.48 0L1440 141.84z" fill="rgba(255, 255, 255, .1)" style="--darkreader-inline-fill: rgba(24, 26, 27, 0.1);" data-darkreader-inline-fill=""></path><path d="M769.48 0L1440 141.84L1440 195.19L479.35 0z" fill="rgba(255, 255, 255, .075)" style="--darkreader-inline-fill: rgba(24, 26, 27, 0.07);" data-darkreader-inline-fill=""></path><path d="M479.35 0L1440 195.19L1440 361.21000000000004L330.72 0z" fill="rgba(255, 255, 255, .05)" style="--darkreader-inline-fill: rgba(24, 26, 27, 0.05);" data-darkreader-inline-fill=""></path><path d="M330.72 0L1440 361.21000000000004L1440 452.55000000000007L308.11 0z" fill="rgba(255, 255, 255, .025)" style="--darkreader-inline-fill: rgba(24, 26, 27, 0.03);" data-darkreader-inline-fill=""></path><path d="M0 560L46.2 560L0 467.14z" fill="rgba(0, 0, 0, .1)" style="--darkreader-inline-fill: rgba(0, 0, 0, 0.1);" data-darkreader-inline-fill=""></path><path d="M0 467.14L46.2 560L452.69 560L0 379.12z" fill="rgba(0, 0, 0, .075)" style="--darkreader-inline-fill: rgba(0, 0, 0, 0.07);" data-darkreader-inline-fill=""></path><path d="M0 379.12L452.69 560L725.47 560L0 301.43z" fill="rgba(0, 0, 0, .05)" style="--darkreader-inline-fill: rgba(0, 0, 0, 0.05);" data-darkreader-inline-fill=""></path><path d="M0 301.43L725.47 560L935.8000000000001 560L0 181.54000000000002z" fill="rgba(0, 0, 0, .025)" style="--darkreader-inline-fill: rgba(0, 0, 0, 0.03);" data-darkreader-inline-fill=""></path></g><defs><mask id="SvgjsMask1002"><rect width="1440" height="560" fill="#ffffff" style="--darkreader-inline-fill: #e8e6e3;" data-darkreader-inline-fill=""></rect></mask><linearGradient x1="15.28%" y1="-39.29%" x2="84.72%" y2="139.29%" gradientUnits="userSpaceOnUse" id="SvgjsLinearGradient1003"><stop stop-color="#0e2a47" offset="0" style="--darkreader-inline-stopcolor: #0b2239;" data-darkreader-inline-stopcolor=""></stop><stop stop-color="#00459e" offset="1" style="--darkreader-inline-stopcolor: #00377e;" data-darkreader-inline-stopcolor=""></stop></linearGradient></defs></svg>